<?xml version="1.0" standalone="no"?>
<!DOCTYPE svg PUBLIC "-//W3C//DTD SVG 20010904//EN"
 "http://www.w3.org/TR/2001/REC-SVG-20010904/DTD/svg10.dtd">
<svg version="1.0" xmlns="http://www.w3.org/2000/svg"
 width="700.000000pt" height="300.000000pt" viewBox="0 0 700.000000 300.000000"
 preserveAspectRatio="xMidYMid meet">

<g transform="translate(0.000000,300.000000) scale(0.100000,-0.100000)"
fill="#000000" stroke="none">
<path d="M5456 2878 c-41 -66 -201 -484 -230 -605 l-18 -73 -427 0 c-234 0
-432 -4 -438 -8 -10 -6 -13 -210 -13 -921 -1 -503 1 -915 3 -917 6 -6 2358 -5
2368 1 5 4 9 354 9 909 0 828 -1 905 -17 917 -13 11 -92 15 -400 17 l-384 3
-40 87 c-22 48 -60 121 -83 162 -24 41 -81 144 -127 228 -107 198 -167 256
-203 200z m345 -638 l18 -40 -44 0 c-25 0 -45 2 -45 5 0 14 42 86 47 81 3 -3
14 -24 24 -46z m829 -965 l0 -845 -925 0 c-509 0 -925 3 -925 6 0 4 52 103
116 221 l116 215 58 -60 c177 -181 503 -264 691 -175 124 59 200 140 282 300
42 83 50 106 41 120 -6 10 -22 18 -35 18 -20 0 -33 -16 -79 -104 -136 -256
-298 -336 -539 -267 -164 47 -278 118 -345 215 l-27 39 271 509 c150 279 290
541 312 581 l39 72 475 0 474 0 0 -845z"/>
<path d="M6066 1677 c-14 -10 -20 -41 -30 -172 -13 -164 -10 -195 22 -195 40
1 45 15 58 171 7 85 13 159 14 166 0 13 -27 43 -39 43 -4 0 -15 -6 -25 -13z"/>
<path d="M573 720 c-30 -12 -32 -64 -4 -80 13 -7 544 -10 1645 -10 1613 0
1626 0 1646 20 24 24 24 30 6 56 -14 19 -44 19 -1643 21 -958 1 -1637 -2
-1650 -7z"/>
</g>
</svg>
